# xmcd
#
# Track frame offsets: 
#        150
#        28264
#        55301
#        89299
#        121124
#        156469
#        182834
#        221340
#        252191
#        300535
#
# Disc length: 4448 seconds
#
# Revision: 2
# Processed by: cddbd v1.5.2PL0 Copyright (c) Steve Scherf et al.
# Submitted via: ExactAudioCopy v1.0b1
#
DISCID=84115e0a
DTITLE=Markus Guentner - Lovely Society
DYEAR=2006
DGENRE=House, Minimal, Ambient
TTITLE0=All The Time (feat. Heiko Badje)
TTITLE1=Something About You
TTITLE2=Soften Edges
TTITLE3=Options 2 (Ziggy Kinder Remix)
TTITLE4=Back In The Days
TTITLE5=Swap
TTITLE6=All The Time (Renato Figoli Remix)
TTITLE7=On My Mind
TTITLE8=Never Want To Stop Playing That Game
TTITLE9=As We Lay On The Beach
EXTD=
EXTT0=
EXTT1=
EXTT2=
EXTT3=
EXTT4=
EXTT5=
EXTT6=
EXTT7=
EXTT8=
EXTT9=
PLAYORDER=
